<?xml version="1.0" standalone="no"?><!-- Generator: Gravit.io --><svg xmlns="http://www.w3.org/2000/svg" xmlns:xlink="http://www.w3.org/1999/xlink" style="isolation:isolate" viewBox="0 0 160 160" width="160" height="160"><defs><clipPath id="_clipPath_IPsyPCtU1DQ5PrznjruLCt6Q5TKDJ37y"><rect width="160" height="160"/></clipPath></defs><g clip-path="url(#_clipPath_IPsyPCtU1DQ5PrznjruLCt6Q5TKDJ37y)"><g id="Left Brace"><path d=" M 35.237 23.321 C 34.204 23.538 32.941 23.973 31.334 24.624 C 29.727 25.276 28.235 26.253 26.628 27.556 C 25.136 28.859 23.759 30.488 22.611 32.66 C 21.463 34.724 21.004 37.33 21.004 40.479 L 21.004 65.239 C 21.004 71.537 18.709 75.446 14.118 76.967 C 18.709 78.921 21.004 82.939 21.004 88.912 L 21.004 120.839 C 21.004 123.554 21.463 125.943 22.496 128.006 C 23.529 130.069 24.792 131.807 26.169 133.11 C 27.661 134.522 29.154 135.608 30.875 136.476 C 32.482 137.345 33.974 137.888 35.122 138.214 L 35.122 142.884 C 32.941 142.775 30.531 142.449 27.891 142.015 C 25.251 141.58 22.726 140.603 20.316 139.191 C 17.905 137.78 15.954 135.608 14.347 132.893 C 12.74 130.069 11.937 126.377 11.937 121.599 L 11.937 88.369 C 11.937 82.831 7.92 79.573 0 78.704 L 0 75.555 C 7.92 75.012 11.937 71.863 11.937 66.107 L 11.937 39.502 C 11.937 35.158 12.626 31.683 14.118 29.077 C 15.61 26.47 17.561 24.407 19.857 22.887 C 22.152 21.366 24.677 20.28 27.317 19.629 C 29.957 18.977 32.597 18.434 35.007 18.109 L 35.007 23.321 L 35.237 23.321 Z " fill="rgb(0,0,0)"/></g><g id="Right Brace"><path d=" M 124.993 18 C 127.518 18.434 130.043 18.977 132.683 19.52 C 135.323 20.172 137.848 21.258 140.143 22.778 C 142.439 24.298 144.39 26.362 145.882 28.968 C 147.374 31.574 148.063 35.049 148.063 39.393 L 148.063 66.107 C 148.063 71.863 152.08 75.012 160 75.555 L 160 78.704 C 152.08 79.573 148.063 82.831 148.063 88.369 L 148.063 121.599 C 148.063 126.377 147.26 130.178 145.653 132.893 C 144.046 135.716 142.095 137.78 139.684 139.191 C 137.274 140.603 134.749 141.58 132.109 142.015 C 129.469 142.449 127.059 142.775 124.878 142.884 L 124.878 138.214 C 126.026 137.888 127.518 137.345 129.125 136.476 C 130.732 135.608 132.339 134.522 133.831 133.11 C 135.323 131.698 136.471 130.069 137.504 128.006 C 138.537 125.943 138.996 123.554 138.996 120.839 L 138.996 88.912 C 138.996 82.831 141.291 78.921 145.882 76.967 C 141.291 75.446 138.996 71.537 138.996 65.239 L 138.996 40.479 C 138.996 37.33 138.422 34.724 137.389 32.66 C 136.241 30.597 134.978 28.859 133.372 27.556 C 131.879 26.253 130.273 25.276 128.666 24.624 C 127.059 23.973 125.796 23.538 124.763 23.321 L 124.763 18 L 124.993 18 Z " fill="rgb(0,0,0)"/></g><g id="Group"><path d=" M 80.344 42.602 C 101.498 42.602 118.713 58.528 118.713 78.104 C 118.713 97.68 101.498 113.606 80.344 113.606 C 77.499 113.606 74.557 113.279 71.596 112.64 L 69.524 112.193 L 67.619 113.194 C 63.443 115.402 58.609 117.305 53.992 118.64 C 54.855 116.872 55.705 115.104 56.517 113.393 L 59.043 108.046 L 54.701 104.425 C 46.612 97.666 41.976 88.073 41.976 78.104 C 41.976 58.528 59.19 42.602 80.344 42.602 Z  M 80.344 35.502 C 55.622 35.502 35.581 54.573 35.581 78.104 C 35.581 90.871 41.509 102.288 50.852 110.098 C 48.027 116.083 45.067 121.987 41.976 127.807 C 49.835 127.807 61.448 124.328 70.369 119.606 C 73.654 120.328 76.995 120.697 80.344 120.706 C 105.066 120.706 125.108 101.635 125.108 78.104 C 125.108 54.573 105.066 35.502 80.344 35.502 Z " fill="rgb(113,63,19)"/></g><path d=" M 106.492 67.471 C 104.224 65.063 101.198 63.738 97.982 63.736 L 85.361 63.736 C 87.349 63.73 90.342 68.83 90.342 70.916 L 97.98 70.916 C 99.673 70.916 101.251 71.546 102.382 72.759 C 103.451 73.864 104.058 75.457 104.044 77.126 C 104.047 78.695 103.507 80.2 102.546 81.297 C 101.411 82.625 99.761 83.342 97.98 83.336 L 84.655 83.384 C 81.312 83.384 78.634 80.571 78.635 77.126 C 78.629 75.146 77.257 73.543 75.563 73.535 C 73.867 73.539 72.493 75.144 72.49 77.126 C 72.491 80.572 73.673 83.873 75.771 86.295 C 77.992 88.89 81.167 90.48 84.656 90.467 L 97.98 90.514 C 101.369 90.522 104.591 88.999 106.864 86.343 C 108.976 83.874 110.188 80.596 110.186 77.126 C 110.186 73.416 108.854 69.989 106.492 67.471 Z  M 85.485 67.957 C 83.264 65.362 80.047 63.736 76.559 63.736 L 63.274 63.736 C 59.887 63.73 56.664 65.251 54.391 67.908 C 52.278 70.376 51.07 73.658 51.07 77.126 C 51.07 80.836 52.402 84.262 54.764 86.78 C 57.032 89.188 60.058 90.514 63.274 90.516 L 75.895 90.516 C 73.902 90.516 70.914 85.422 70.914 83.336 L 63.276 83.336 C 61.583 83.336 60.01 82.699 58.874 81.493 C 57.804 80.388 57.197 78.793 57.214 77.124 C 57.212 75.556 57.751 74.053 58.71 72.954 C 59.845 71.627 61.495 70.91 63.276 70.916 L 76.601 70.868 C 79.944 70.868 82.615 73.689 82.621 77.126 C 82.621 79.104 84.006 80.723 85.693 80.717 C 87.389 80.712 88.763 79.107 88.766 77.126 C 88.763 73.68 87.582 70.379 85.485 67.957 Z " fill="rgb(0,0,0)"/></g></svg>